<svg xmlns="http://www.w3.org/2000/svg" width="1000" height="1000" viewBox="0 0 1000 1000">
  <g fill="#fff">
    <!-- Lid -->
    <rect x="120" y="320" width="760" height="120" rx="25"/>
    <!-- Box base -->
    <rect x="150" y="440" width="700" height="410" rx="30"/>
    <!-- Vertical ribbon -->
    <rect x="475" y="320" width="50" height="530"/>
    <!-- Horizontal ribbon -->
    <rect x="120" y="470" width="760" height="50"/>
    <!-- Bow loops -->
    <path d="M500 320
             C 450 290 390 260 360 300
             C 335 330 365 360 400 360
             C 435 360 470 340 500 320 Z"/>
    <path d="M500 320
             C 550 290 610 260 640 300
             C 665 330 635 360 600 360
             C 565 360 530 340 500 320 Z"/>
    <!-- Bow tails -->
    <path d="M470 355 L430 420 L500 400 Z"/>
    <path d="M530 355 L570 420 L500 400 Z"/>
  </g>
</svg>
